<?xml version="1.0" encoding="UTF-8" standalone="no"?>
<!-- Created with Inkscape (http://www.inkscape.org/) -->

<svg
   width="113.43227mm"
   height="206.01562mm"
   viewBox="0 0 113.43227 206.01562"
   version="1.1"
   id="svg1"
   xmlns="http://www.w3.org/2000/svg"
   xmlns:svg="http://www.w3.org/2000/svg">
  <defs
     id="defs1" />
  <g
     id="layer1"
     transform="translate(-31.341708,-18.52918)">
    <path
       style="fill:#ff0505;fill-opacity:1;stroke:none;stroke-width:1.355;stroke-linecap:square;stroke-linejoin:bevel"
       d="m 63.056531,224.24246 c -28.729897,-28.7299 -31.714823,-51.86307 -31.714823,-51.86307 0,0 31.714823,39.55026 13.059045,-18.28266 C 25.744975,96.263819 56.713566,60.444723 62.683416,45.893214 68.653265,31.341708 50.370602,72.384422 65.295226,106.71105 80.219848,141.03769 95.890703,36.565326 79.473617,20.894472 63.056531,5.2236181 176.71432,70.163352 127.60553,134.69472 c -45.146993,59.32538 -0.74623,67.90704 8.95477,39.92337 19.89786,25.49505 -2.61181,47.38568 -2.61181,47.38568 z"
       id="path1" />
    <path
       style="fill:#ffb705;fill-opacity:1;stroke:none;stroke-width:0.890735;stroke-linecap:square;stroke-linejoin:bevel"
       d="m 66.281287,224.54481 c -18.807192,-18.9657 -26.731036,-39.08728 -26.731036,-39.08728 0,0 35.68581,16.40762 19.742191,-18.41205 -16.687626,-36.44453 -11.7149,-73.762934 -7.806912,-83.368936 3.907989,-9.606001 -6.940879,8.533078 15.888138,34.551426 16.275159,18.54889 36.818642,-61.603592 26.071672,-71.948517 -10.746967,-10.344925 54.32791,49.687577 22.18027,92.287177 -14.77708,19.58146 -13.31347,37.50455 -7.36177,48.22313 5.95169,10.71858 22.36132,7.8897 25.53656,-1.34683 13.02556,16.83024 -7.30647,36.87781 -7.30647,36.87781 z"
       id="path2" />
    <path
       style="fill:#fff805;fill-opacity:1;stroke:none;stroke-width:0.592317;stroke-linecap:square;stroke-linejoin:bevel"
       d="M 73.068825,224.54481 C 60.774194,211.71594 55.594221,197.50156 55.594221,197.50156 c 0,0 25.567205,6.62113 15.144551,-16.93175 -5.454515,-12.32599 -12.779255,-27.13173 -15.436101,-42.28 -2.656847,-15.14826 -4.376955,-34.74333 -3.099591,-37.9922 2.554725,-6.497728 -1.179349,26.66646 18.968047,43.51968 12.618049,10.55495 36.381883,-48.013148 32.714423,-55.756939 -4.244214,-8.9616 22.08305,29.132499 1.06751,57.947919 -9.660069,13.24538 -12.527706,33.85738 -5.74532,46.23803 6.78239,12.38065 28.06531,10.18701 30.14102,3.93919 8.51507,11.38438 -12.06724,26.8549 -12.06724,26.8549 z"
       id="path3" />
  </g>
</svg>
