<?xml version="1.0" encoding="UTF-8" standalone="no"?>
<!-- Created with Inkscape (http://www.inkscape.org/) -->

<svg
   width="198.94353mm"
   height="110.0009mm"
   viewBox="0 0 198.94353 110.0009"
   version="1.1"
   id="svg1"
   xmlns:xlink="http://www.w3.org/1999/xlink"
   xmlns="http://www.w3.org/2000/svg"
   xmlns:svg="http://www.w3.org/2000/svg">
  <defs
     id="defs1">
    <linearGradient
       id="linearGradient23">
      <stop
         style="stop-color:#00ff00;stop-opacity:1;"
         offset="0"
         id="stop24" />
      <stop
         style="stop-color:#009200;stop-opacity:1;"
         offset="1"
         id="stop25" />
    </linearGradient>
    <radialGradient
       xlink:href="#linearGradient23"
       id="radialGradient25"
       cx="102.9998"
       cy="142.89272"
       fx="102.9998"
       fy="142.89272"
       r="96.498604"
       gradientTransform="matrix(1,0,0,0.54850987,0,64.514649)"
       gradientUnits="userSpaceOnUse" />
    <filter
       style="color-interpolation-filters:sRGB"
       id="filter81"
       x="-0.37447676"
       y="-0.08273742"
       width="1.7350137"
       height="1.1706291">
      <feGaussianBlur
         stdDeviation="0.9220964"
         id="feGaussianBlur81" />
    </filter>
    <filter
       style="color-interpolation-filters:sRGB"
       id="filter83"
       x="-0.024936286"
       y="-0.067351393"
       width="1.0498726"
       height="1.1347028">
      <feGaussianBlur
         stdDeviation="1.9688549"
         id="feGaussianBlur83" />
    </filter>
  </defs>
  <g
     id="layer1"
     style="display:inline"
     transform="translate(-2.8249274,-89.96227)">
    <path
       style="display:inline;fill:url(#radialGradient25);fill-opacity:1;stroke:#000000;stroke-width:1.355;stroke-linecap:square;stroke-linejoin:bevel;stroke-opacity:1"
       d="m 13.059044,194.76633 c -11.1934664,-31.34171 -2.984923,-55.78077 -2.984923,-55.78077 0,0 11.566582,30.78203 18.282664,36.75188 6.71608,5.96985 1.137642,-0.30484 1.137642,-0.30484 0,0 5.578438,-58.64743 -1.883873,-73.57205 -7.462313,-14.924622 42.114541,50.31674 34.699746,74.99623 -2.064422,6.87125 -1.295432,-0.95077 0,-0.74623 0,0 26.11809,-59.32538 17.536433,-76.488693 -8.581658,-17.163317 39.550247,60.071613 29.476127,85.816583 0,0 21.64071,-79.84673 17.90955,-93.278894 -3.73116,-13.43216 18.46922,61.750624 19.58857,77.421484 1.11934,15.67085 0.37311,0.18656 0.37311,0.18656 0,0 26.30375,-42.92954 20.14824,-66.41458 -8.38914,-32.00696 22.2411,41.45517 14.73806,58.95226 -7.44339,17.35801 8.42033,-17.2633 15.11119,-41.9755 5.05207,-18.65947 -2.40515,63.55309 -11.94763,74.81588 z"
       id="path4" />
    <path
       style="display:inline;fill:#007500;fill-opacity:1;stroke:none;stroke-width:1.16961;stroke-linecap:square;stroke-linejoin:bevel;stroke-opacity:1;filter:url(#filter83)"
       d="M 12.923818,194.95273 C 7.0029408,170.26924 7.5644523,153.3873 7.5644523,153.3873 c 0,0 6.5134397,35.68591 19.5960327,35.28062 44.767002,-1.38686 21.620013,-57.96929 21.620013,-57.96929 -7.395236,-11.22102 19.745371,31.25187 12.397226,49.80704 -2.045865,5.16613 6.289962,14.25884 21.057824,0.60735 0,0 19.597582,-19.76071 20.718402,-32.32243 0.87693,-9.82846 11.55166,25.24345 5.92806,35.79097 -11.326821,21.24434 32.52346,-9.66186 31.0424,-38.78967 -0.54676,-10.75314 6.68839,18.62986 7.79768,30.41193 0.39696,4.21629 27.40702,-26.27141 27.3062,-43.82342 -0.14623,-25.45954 13.20583,22.84294 5.03553,35.5548 -2.15286,3.34956 8.73804,-0.10685 15.36875,-18.68662 5.00666,-14.02905 -2.41487,37.52146 -11.87157,45.98934 z"
       id="path82" />
    <path
       style="display:inline;mix-blend-mode:lighten;fill:#00ff00;fill-opacity:1;stroke:#00ff00;stroke-width:1.355;stroke-linecap:square;stroke-linejoin:bevel;stroke-opacity:1;filter:url(#filter81)"
       d="m 31.341708,185.99811 c 7.835426,-30.59547 3.358041,-74.06344 3.358041,-74.06344 0,0 15.85741,49.0647 8.768215,61.75063 -7.089195,12.68593 -12.126256,12.31281 -12.126256,12.31281 z"
       id="path8" />
    <path
       style="display:inline;mix-blend-mode:lighten;fill:#00ff00;fill-opacity:1;stroke:#00ff00;stroke-width:1.355;stroke-linecap:square;stroke-linejoin:bevel;stroke-opacity:1;filter:url(#filter81)"
       d="m 82.831657,108.57663 c 2.798368,59.32538 -7.275754,67.16081 -7.275754,67.16081 0,0 7.462313,-5.7833 10.074121,-33.20729 2.611808,-27.424 -2.984925,-34.88631 -2.984925,-34.88631"
       id="path9" />
    <path
       style="display:inline;mix-blend-mode:lighten;fill:#00ff00;fill-opacity:1;stroke:#00ff00;stroke-width:1.355;stroke-linecap:square;stroke-linejoin:bevel;stroke-opacity:1;filter:url(#filter81)"
       d="m 120.88945,180.96105 c 9.88756,-54.66143 7.83542,-71.26507 7.83542,-71.26507"
       id="path10" />
    <path
       style="display:inline;mix-blend-mode:lighten;fill:#008000;fill-opacity:1;stroke:#00ff00;stroke-width:1.355;stroke-linecap:square;stroke-linejoin:bevel;stroke-opacity:1;filter:url(#filter81)"
       d="m 161.18593,183.94598 c 11.56658,-38.61746 11.00691,-65.10867 11.00691,-65.10867"
       id="path11" />
    <path
       style="display:inline;mix-blend-mode:lighten;fill:#00ff00;fill-opacity:1;stroke:#00ff00;stroke-width:1.355;stroke-linecap:square;stroke-linejoin:bevel;stroke-opacity:1;filter:url(#filter81)"
       d="m 20.334799,184.13254 c -5.596734,-7.0892 -9.701005,-36.00566 -9.701005,-36.00566"
       id="path12" />
    <path
       style="display:inline;fill:none;fill-opacity:1;stroke:#000000;stroke-width:1.355;stroke-linecap:square;stroke-linejoin:bevel;stroke-opacity:1"
       d="m 13.059044,194.76633 c -11.1934664,-31.34171 -2.984923,-55.78077 -2.984923,-55.78077 0,0 11.566582,30.78203 18.282664,36.75188 6.71608,5.96985 1.137642,-0.30484 1.137642,-0.30484 0,0 5.578438,-58.64743 -1.883873,-73.57205 -7.462313,-14.924622 41.554868,49.01084 34.140073,73.69033 -2.064422,6.87125 -0.735759,0.35513 0.559673,0.55967 0,0 26.11809,-59.32538 17.536433,-76.488693 -8.581658,-17.163317 39.550247,60.071613 29.476127,85.816583 0,0 21.64071,-79.84673 17.90955,-93.278894 -3.73116,-13.43216 18.46922,61.750624 19.58857,77.421484 1.11934,15.67085 0.37311,0.18656 0.37311,0.18656 0,0 26.30375,-42.92954 20.14824,-66.41458 -8.38914,-32.00696 22.2411,41.45517 14.73806,58.95226 -7.44339,17.35801 8.42033,-17.2633 15.11119,-41.9755 5.05207,-18.65947 -2.40515,63.55309 -11.94763,74.81588 z"
       id="path80" />
    <path
       style="display:inline;fill:none;fill-opacity:1;stroke:#000000;stroke-width:1.355;stroke-linecap:square;stroke-linejoin:bevel;stroke-opacity:1"
       d="m 13.059044,194.76633 c -11.1934664,-31.34171 -2.984923,-55.78077 -2.984923,-55.78077 0,0 11.566582,30.78203 18.282664,36.75188 6.71608,5.96985 1.137642,-0.30484 1.137642,-0.30484 0,0 5.578438,-58.64743 -1.883873,-73.57205 -7.462313,-14.924622 42.114541,50.31674 34.699746,74.99623 -2.064422,6.87125 -1.295432,-0.95077 0,-0.74623 0,0 26.11809,-59.32538 17.536433,-76.488693 -8.581658,-17.163317 39.550247,60.071613 29.476127,85.816583 0,0 21.64071,-79.84673 17.90955,-93.278894 -3.73116,-13.43216 18.46922,61.750624 19.58857,77.421484 1.11934,15.67085 0.37311,0.18656 0.37311,0.18656 0,0 26.30375,-42.92954 20.14824,-66.41458 -8.38914,-32.00696 22.2411,41.45517 14.73806,58.95226 -7.44339,17.35801 8.42033,-17.2633 15.11119,-41.9755 5.05207,-18.65947 -2.40515,63.55309 -11.94763,74.81588 z"
       id="path83" />
  </g>
</svg>
